#!OML:ASF E:/inclinewalkrobotboard/Project1/Captureday1/Session1/subject1.ASF
:FULLY-SPECIFIED
:DEGREES
151
root 0 0 0 15.059664935935682 38.89637718789098 1.1092363900204654
lowerback 13.143785873538299 5.178853307597681 5.8540198697572485
upperback -4.131755599240969 7.197308439535946 2.1539454656550956
thorax -11.325668869679344 3.361652920646149 -1.7521334657078738
lowerneck -16.31207145754263 -8.539580934636563 -2.99873048573365
upperneck 25.618747020939757 -13.67574024629012 3.4130215726710516
head 11.094991835705613 -6.0428564533893825 0.1600796556953512
rclavicle -1.2321545154385548E-14 -7.922956101298852E-16
rhumerus -32.71649630586987 15.865871853741393 -83.46487351253833
rradius 32.47608920378678
rwrist 8.32292675677732
rhand -19.02165986195274 -4.400153991530059
rfingers 7.125019999999963
rthumb 7.363326750304707 -34.407493232512266
lclavicle 7.690628768323228E-16 4.696771054854358E-15
lhumerus -47.99554026892518 19.952061689064536 66.15268182414975
lradius 51.155028022068706
lwrist -12.290458185616462
lhand -14.216016090146438 17.102848587951943
lfingers 7.125019999999911
lthumb 11.94230811100807 46.35057224684137
rfemur -7.2182354946435066 20.192470111682752 37.96826513801276
rtibia -1.1050207173488005
rfoot 4.083797118922718 -27.370819068064783
rtoes -32.462421935722546
lfemur -40.68774592941564 -19.222075944195097 -20.525464535757465
ltibia 26.90790026260572
lfoot -29.086741059569597 -5.490420306024069
ltoes -43.83208753452453
152
root 0 0 0 15.059927666440416 38.89580692092324 1.1110158730916777
lowerback 13.147236240972637 5.177697910913723 5.852259300577248
upperback -4.1303988028180365 7.195504654690913 2.1546156396018032
thorax -11.325962188310532 3.360909160857897 -1.7501631903906527
lowerneck -16.312997908849233 -8.541578152987094 -3.0012933479011332
upperneck 25.615830912378105 -13.67851909725834 3.4146657807718954
head 11.094007863230964 -6.044427489343323 0.1607561141126752
rclavicle -1.2314919211859649E-14 -7.888635159397906E-16
rhumerus -32.73176015600009 15.85726176407604 -83.46077077497944
rradius 32.457128493382555
rwrist 8.33537296045509
rhand -19.020469037088425 -4.401138136627361
rfingers 7.125019999999963
rthumb 7.36458748192262 -34.40836876116364
lclavicle 8.039004984504641E-16 4.707073245361787E-15
lhumerus -47.99681058455187 19.956653107321763 66.14813419464701
lradius 51.15106263467905
lwrist -12.29812480979475
lhand -14.219212412206785 17.100262958987464
lfingers 7.125019999999911
lthumb 11.939154730359434 46.348066004674244
rfemur -7.2316101385129254 20.189421873010367 37.964692619388096
rtibia -1.091498314968753
rfoot 4.091998371700086 -27.37086309582393
rtoes -32.44623378188771
lfemur -40.6539288047856 -19.235619732147875 -20.529545076695474
ltibia 26.864013661420522
lfoot -29.080556447607233 -5.4878975185884915
ltoes -43.82246776279898
153
root 0 0 0 15.06227267974116 38.892809901690555 1.113462889555406
lowerback 13.151346563787541 5.176512712070856 5.850585907303923
upperback -4.128864334718355 7.1936285021356765 2.1552755165869657
thorax -11.326519462138814 3.3601179733813913 -1.748320558233654
lowerneck -16.314757986142688 -8.542367174592655 -3.003101710735126
upperneck 25.61224375387375 -13.679459233545892 3.4143328617275888
head 11.092867595446526 -6.0453005020896775 0.16079507112322422
rclavicle -1.2308962931298336E-14 -7.859479391057045E-16
rhumerus -32.738815190468166 15.849575623053306 -83.45932828066569
rradius 32.43253905923032
rwrist 8.351612472123527
rhand -19.018517343515647 -4.402907139651322
rfingers 7.125019999999963
rthumb 7.366524997315933 -34.409969586096025
lclavicle 8.24389219947849E-16 4.709951356614939E-15
lhumerus -47.997151805490276 19.958742868865627 66.14485688617683
lradius 51.14781846294035
lwrist -12.304771232371976
lhand -14.221638519223085 17.097868731377353
lfingers 7.125019999999911
lthumb 11.936790178549618 46.34570080319585
rfemur -7.255955500646717 20.190163981453587 37.96481707317608
rtibia -1.0721806840795693
rfoot 4.087247181555391 -27.366664867438033
rtoes -32.42447150939442
lfemur -40.64785148427975 -19.23667569504649 -20.534110614597928
ltibia 26.86515509748156
lfoot -29.074313671748648 -5.499297454248028
ltoes -43.81244916926266
154
root 0 0 0 15.061997048751968 38.88255605527199 1.1064369091656698
lowerback 13.144890462142396 5.179235114827685 5.85559097823955
upperback -4.131758639672416 7.197942404730756 2.1532376777804236
thorax -11.326541323390076 3.3618059842374124 -1.7540597683386845
lowerneck -16.31073916147513 -8.530472445262244 -2.9874702307605814
upperneck 25.623973614000203 -13.663846018779902 3.407623486835987
head 11.0968396111556 -6.03660340504578 0.1576609515902918
rclavicle -1.2315578811781048E-14 -7.765958072978577E-16
rhumerus -32.70871272469214 15.883562314718947 -83.47894468528855
rradius 32.50002227505408
rwrist 8.287612445089088
rhand -19.022832935808328 -4.405241972337279
rfingers 7.125019999999963
rthumb 7.361868432236177 -34.41261859096069
lclavicle 7.525931187599331E-16 4.6955852826489566E-15
lhumerus -48.00563177703923 19.94837563077875 66.158639022227
lradius 51.14108510414689
lwrist -12.28558062877033
lhand -14.203006199978411 17.105691438253835
lfingers 7.125019999999911
lthumb 11.954938767912218 46.35263322681022
rfemur -7.2462577180079 20.214341303983147 37.97721625947328
rtibia -1.1072067361398794
rfoot 4.036792329494762 -27.36185271625196
rtoes -32.47923062899781
lfemur -40.76320389418342 -19.195003821798675 -20.51979006891946
ltibia 27.00912137840927
lfoot -29.112121758961827 -5.513967144210506
ltoes -43.84025121829063
